<?xml version="1.0" encoding="UTF-8" standalone="no"?>
<svg width="34px" height="28px" viewBox="0 0 34 28" version="1.1" xmlns="http://www.w3.org/2000/svg" xmlns:xlink="http://www.w3.org/1999/xlink" xmlns:sketch="http://www.bohemiancoding.com/sketch/ns">
    <!-- Generator: Sketch 3.3.3 (12081) - http://www.bohemiancoding.com/sketch -->
    <title>Slice 1</title>
    <desc>Created with Sketch.</desc>
    <defs></defs>
    <g id="Page-1" stroke="none" stroke-width="1" fill="none" fill-rule="evenodd" sketch:type="MSPage">
        <g id="Imported-Layers" sketch:type="MSLayerGroup" fill="#8D9AAB">
            <path d="M17,6.246 L5.584,15.855 C5.584,15.868 5.581,15.889 5.574,15.915 C5.567,15.943 5.564,15.962 5.564,15.976 L5.564,25.706 C5.564,26.057 5.69,26.362 5.941,26.618 C6.193,26.875 6.491,27.004 6.835,27.004 L14.459,27.004 L14.459,19.219 L19.542,19.219 L19.542,27.004 L27.166,27.004 C27.51,27.004 27.808,26.875 28.059,26.618 C28.31,26.362 28.437,26.057 28.437,25.706 L28.437,15.976 C28.437,15.922 28.429,15.882 28.417,15.855 L17,6.246" id="Fill-1" sketch:type="MSShapeGroup"></path>
            <path d="M32.784,13.666 L28.436,9.976 L28.436,1.706 C28.436,1.517 28.377,1.361 28.257,1.24 C28.139,1.118 27.986,1.057 27.801,1.057 L23.989,1.057 C23.803,1.057 23.651,1.118 23.532,1.24 C23.413,1.361 23.353,1.517 23.353,1.706 L23.353,5.659 L18.509,1.523 C18.086,1.172 17.583,0.996 17,0.996 C16.418,0.996 15.915,1.172 15.491,1.523 L1.216,13.666 C1.083,13.773 1.011,13.919 0.997,14.101 C0.984,14.284 1.03,14.443 1.136,14.578 L2.367,16.078 C2.473,16.199 2.612,16.274 2.784,16.301 C2.943,16.314 3.102,16.267 3.261,16.159 L17,4.462 L30.739,16.159 C30.845,16.253 30.984,16.301 31.156,16.301 L31.216,16.301 C31.388,16.274 31.527,16.199 31.633,16.078 L32.864,14.578 C32.97,14.443 33.016,14.284 33.002,14.101 C32.989,13.919 32.916,13.774 32.784,13.666" id="Fill-2" sketch:type="MSShapeGroup"></path>
        </g>
    </g>
</svg>